<?xml version="1.0" encoding="UTF-8"?>
<svg version="1.1" xmlns="http://www.w3.org/2000/svg" width="512" height="512">
<path d="M0 0 C4.33438564 1.64972635 7.99583405 3.83125378 11.8125 6.4375 C12.46702148 6.87924561 13.12154297 7.32099121 13.79589844 7.77612305 C15.86818209 9.17794748 17.93496714 10.58751948 20 12 C20.64437012 12.44053711 21.28874023 12.88107422 21.95263672 13.33496094 C25.2281062 15.57751958 28.49825863 17.82768599 31.765625 20.08203125 C35.53035456 22.67891549 39.30330386 25.26360971 43.07885742 27.84472656 C44.68625234 28.94366147 46.29319008 30.0432654 47.8996582 31.14355469 C51.80031603 33.8150522 55.70530817 36.47962342 59.62109375 39.12890625 C60.34941406 39.62390625 61.07773438 40.11890625 61.828125 40.62890625 C63.19163506 41.55558808 64.55737666 42.47899866 65.92578125 43.3984375 C69.27805652 45.68279386 72.24816486 48.01367265 75 51 C74.4738208 51.15968262 73.9476416 51.31936523 73.40551758 51.48388672 C59.29747424 55.82552623 46.16558434 61.33758134 33 68 C34.32 69.32 35.64 70.64 37 72 C37.53665283 71.78384033 38.07330566 71.56768066 38.6262207 71.3449707 C48.18180276 67.52537558 57.73021146 63.82702386 67.6875 61.1875 C68.36014893 61.00550049 69.03279785 60.82350098 69.72583008 60.63598633 C84.49244713 56.90266942 99.00092419 55.44606179 114.1875 55.5625 C115.45951767 55.56706207 115.45951767 55.56706207 116.75723267 55.57171631 C139.30602743 55.69084142 160.64655821 59.44456309 181.66015625 67.82421875 C182.39371338 68.11506348 183.12727051 68.4059082 183.88305664 68.70556641 C185.25660142 69.26157404 186.6224817 69.83705875 187.97827148 70.43505859 C189.99866718 71.31903174 189.99866718 71.31903174 193 72 C195.45025296 70.80623806 195.45025296 70.80623806 197 69 C183.18605639 61.05046641 169.24174421 55.61420373 154 51 C154 50.34 154 49.68 154 49 C155.765625 47.57055664 155.765625 47.57055664 158.25 45.91015625 C159.16056152 45.29624023 160.07112305 44.68232422 161.00927734 44.04980469 C161.99621582 43.39399414 162.9831543 42.73818359 164 42.0625 C166.03403802 40.6942837 168.06789108 39.32579239 170.1015625 37.95703125 C171.10864258 37.28236816 172.11572266 36.60770508 173.15332031 35.91259766 C176.91335621 33.38634369 180.64703344 30.82323627 184.375 28.25 C185.65620401 27.36842274 186.93745361 26.48691174 188.21875 25.60546875 C190.78290462 23.83962624 193.34501696 22.07085806 195.90625 20.30078125 C203.20118319 15.2635041 210.52154932 10.26399969 217.875 5.3125 C218.65472168 4.78277588 219.43444336 4.25305176 220.23779297 3.70727539 C220.96111816 3.22250732 221.68444336 2.73773926 222.4296875 2.23828125 C223.39237549 1.589198 223.39237549 1.589198 224.37451172 0.92700195 C226 0 226 0 228 0 C228.15913628 1.55522118 228.15913628 1.55522118 228.32148743 3.14186096 C229.32424051 12.92715526 230.33882879 22.71116003 231.36492634 32.49403477 C231.89203701 37.52318322 232.41501263 42.5526894 232.9284668 47.58325195 C233.42441196 52.44075104 233.93131203 57.29699447 234.44573021 62.15257072 C234.63978378 64.00244794 234.82993018 65.85273945 235.01604652 67.70343208 C235.27802027 70.30163109 235.55402697 72.89799086 235.83325195 75.49438477 C235.94330818 76.63482742 235.94330818 76.63482742 236.05558777 77.79830933 C236.60382585 82.71699847 237.85838802 86.5327922 240 91 C240.38389893 91.8448999 240.76779785 92.6897998 241.16333008 93.56030273 C241.71089966 94.73508179 241.71089966 94.73508179 242.26953125 95.93359375 C253.14147486 119.41306876 261.27582653 142.84661316 265.4375 168.5 C265.68330811 170.01098267 265.68330811 170.01098267 265.93408203 171.55249023 C266.86182861 177.74351418 267.19273774 183.74330457 267 190 C262.32255022 191.67924951 257.62594545 192.78041687 252.7578125 193.7265625 C252.07581787 193.86215576 251.39382324 193.99774902 250.69116211 194.13745117 C248.16994589 194.63754334 245.64739443 195.13088492 243.125 195.625 C237.47375 196.73875 231.8225 197.8525 226 199 C239.86 199.99 253.72 200.98 268 202 C268 209.92 268 217.84 268 226 C255.46 225.34 242.92 224.68 230 224 C241.88 227.63 253.76 231.26 266 235 C264.55719833 239.32840501 261.26445955 240.73575168 257.5625 243.0625 C256.42264648 243.78723511 256.42264648 243.78723511 255.25976562 244.52661133 C235.20645947 257.13395547 211.74143649 271.18785878 188 275 C183.69801582 269.67912483 180.11476557 264.05968978 176.625 258.1875 C176.17205566 257.43412354 175.71911133 256.68074707 175.25244141 255.90454102 C174.83140137 255.18709717 174.41036133 254.46965332 173.9765625 253.73046875 C173.59580566 253.08489014 173.21504883 252.43931152 172.82275391 251.77416992 C172 250 172 250 172 247 C172.62044189 246.70754395 173.24088379 246.41508789 173.88012695 246.11376953 C176.69208036 244.78662649 179.50230246 243.45585676 182.3125 242.125 C183.28896484 241.66480469 184.26542969 241.20460938 185.27148438 240.73046875 C186.20927734 240.28574219 187.14707031 239.84101563 188.11328125 239.3828125 C189.40939331 238.77010498 189.40939331 238.77010498 190.73168945 238.14501953 C193.1840892 236.96411318 193.1840892 236.96411318 196 235 C194.8354799 233.33378575 194.8354799 233.33378575 193 232 C188.22381176 232.47671935 183.81494202 234.53223265 179.375 236.25 C134.62958523 253.12350156 86.24244428 251.86809634 42 234 C41.30076416 233.63285889 40.60152832 233.26571777 39.88110352 232.88745117 C38.02176156 231.80734081 38.02176156 231.80734081 35.875 232.25 C33.8003048 232.93708233 33.8003048 232.93708233 32 235 C33.59328125 235.79664063 33.59328125 235.79664063 35.21875 236.609375 C42.14583333 240.07291667 49.07291667 243.53645833 56 247 C55.43553147 250.58005266 54.53888054 253.17176852 52.63671875 256.25 C52.16169922 257.0234375 51.68667969 257.796875 51.19726562 258.59375 C50.69904297 259.3878125 50.20082031 260.181875 49.6875 261 C48.95756836 262.19109375 48.95756836 262.19109375 48.21289062 263.40625 C45.69070034 267.47977402 43.10805365 271.33825508 40 275 C31.848037 273.17353053 24.2465804 270.76938361 16.5625 267.5 C15.52826904 267.06204102 14.49403809 266.62408203 13.4284668 266.17285156 C-1.40682908 259.78198345 -15.33299386 252.34378606 -28.8125 243.4375 C-29.73313232 242.82938477 -30.65376465 242.22126953 -31.60229492 241.59472656 C-36.40240072 238.34026128 -36.40240072 238.34026128 -38 237 C-38 236.34 -38 235.68 -38 235 C-26.12 231.37 -14.24 227.74 -2 224 C-20.81 224.99 -20.81 224.99 -40 226 C-40 218.08 -40 210.16 -40 202 C-26.14 201.01 -12.28 200.02 2 199 C-11.11819331 196.40804227 -11.11819331 196.40804227 -24.23803711 193.82446289 C-25.87619992 193.49916571 -27.51430614 193.1735833 -29.15234375 192.84765625 C-30.01089966 192.68003784 -30.86945557 192.51241943 -31.75402832 192.33972168 C-37.8859282 191.1140718 -37.8859282 191.1140718 -39 190 C-39.56970717 182.38027739 -38.62590208 174.98947495 -37.3125 167.5 C-37.13315918 166.45827637 -36.95381836 165.41655273 -36.76904297 164.34326172 C-35.05463582 154.73112291 -32.79568669 145.3517256 -30 136 C-29.78649902 135.2771582 -29.57299805 134.55431641 -29.35302734 133.80957031 C-25.09370942 119.62880908 -19.95570148 104.29511549 -11.94702148 91.79589844 C-9.44238899 87.44220963 -8.99874925 83.1184683 -8.48046875 78.18359375 C-8.36470993 77.19983261 -8.24895111 76.21607147 -8.12968445 75.20249939 C-7.73563854 71.80341315 -7.36706058 68.40210189 -7 65 C-6.78074759 63.03105467 -6.56147512 61.06211147 -6.34141731 59.093256 C-5.38196371 50.49493306 -4.46176255 41.89257662 -3.54907227 33.28918457 C-3.14862393 29.52005239 -2.74505743 25.75125403 -2.34179688 21.98242188 C-1.55824206 14.65526107 -0.77799101 7.32775389 0 0 Z M40.47265625 149.859375 C34.37700997 158.71989002 34.53951097 166.5750401 35 177 C35.68964844 176.52949219 36.37929687 176.05898438 37.08984375 175.57421875 C48.04731596 168.31432976 56.64620127 165.51776951 70 167 C75.49605119 168.56497729 80.23920403 170.58933348 84.7109375 174.171875 C86.77221644 176.20801479 86.77221644 176.20801479 89 176 C91.31328499 169.06014502 89.84824379 160.96736806 86.6875 154.5 C82.20329934 146.23888586 76.81879659 142.16303631 68 139 C56.78910553 136.99502895 47.43449312 140.97192368 40.47265625 149.859375 Z M143 151 C139.69981812 156.80870164 137.86240652 162.43752641 137.8125 169.125 C137.79832031 169.99382812 137.78414062 170.86265625 137.76953125 171.7578125 C137.78256395 174.20329726 137.78256395 174.20329726 140 176 C140.54527344 175.60167969 141.09054687 175.20335937 141.65234375 174.79296875 C151.83854038 167.63651265 160.47751868 165.82930584 173 167 C180.61123944 168.70099669 186.7840097 172.39556274 193 177 C193.54315221 165.68432892 193.10138902 156.87851014 185.875 147.6875 C180.25467444 141.80465392 174.09753864 138.75933358 165.9375 138.4375 C155.99255912 138.93411036 149.07954617 143.17361591 143 151 Z " fill="#1A002F" transform="translate(142,98)"/>
</svg>
