<?xml version="1.0" encoding="UTF-8"?>
<svg version="1.1" xmlns="http://www.w3.org/2000/svg" viewBox="0 0 1024 1024">
<path d="M0 0 C3.59535235 1.31191436 6.5217548 2.88700364 9.640625 5.09765625 C10.53386475 5.72583252 11.42710449 6.35400879 12.34741211 7.0012207 C13.78419312 8.02155396 13.78419312 8.02155396 15.25 9.0625 C17.31816341 10.51683025 19.3872051 11.96991217 21.45703125 13.421875 C23.06698975 14.55206055 23.06698975 14.55206055 24.70947266 15.70507812 C30.08150861 19.46201431 35.51103908 23.13484132 40.9375 26.8125 C43.04304669 28.24077053 45.14851756 29.66915283 47.25390625 31.09765625 C48.73334717 32.10143311 48.73334717 32.10143311 50.24267578 33.12548828 C54.58923578 36.08041016 58.9197123 39.05840888 63.24780273 42.0402832 C68.32449329 45.53767679 73.41094079 49.02063124 78.5 52.5 C84.98709553 56.93573206 91.46746572 61.38103275 97.94140625 65.8359375 C103.92396706 69.95117814 109.91724179 74.0506817 115.91162109 78.14868164 C119.7597416 80.78018049 123.60570235 83.41468921 127.4453125 86.05859375 C128.1465625 86.54142822 128.8478125 87.0242627 129.5703125 87.52172852 C130.91721613 88.44980529 132.26358979 89.37865178 133.609375 90.30834961 C137.88206416 93.25406547 142.19967076 96.11621091 146.59375 98.87890625 C147.0578125 99.24886719 147.521875 99.61882812 148 100 C148 100.66 148 101.32 148 102 C146.96951538 102.28496338 146.96951538 102.28496338 145.91821289 102.57568359 C116.59085779 110.76741063 88.4919779 121.86467992 62 137 C63.54653958 138.37236619 65.11292776 139.72238961 66.6875 141.0625 C67.55761719 141.81660156 68.42773438 142.57070313 69.32421875 143.34765625 C71.81043212 145.26245647 71.81043212 145.26245647 74.32250977 144.7421875 C77.17572385 143.95129019 79.7933105 142.94209551 82.515625 141.77734375 C83.58893066 141.32512451 84.66223633 140.87290527 85.76806641 140.40698242 C86.91710449 139.92205322 88.06614258 139.43712402 89.25 138.9375 C117.47801702 127.26589952 146.76471188 119.3701343 177 115 C178.02319336 114.84901855 179.04638672 114.69803711 180.10058594 114.54248047 C245.05820335 105.36605387 321.37758805 113.55211047 380.21948242 144.15429688 C381.97288996 145.17276763 381.97288996 145.17276763 383.984375 144.81640625 C386.40345131 143.83658658 388.19691583 142.54574927 390.25 140.9375 C390.95640625 140.38964844 391.6628125 139.84179688 392.390625 139.27734375 C392.92171875 138.85582031 393.4528125 138.43429687 394 138 C377.10975785 119.7292101 337.89934494 109.35480914 314.38476562 102.90112305 C313.54107422 102.66949463 312.69738281 102.43786621 311.828125 102.19921875 C311.1052832 102.01190186 310.38244141 101.82458496 309.63769531 101.6315918 C308 101 308 101 307 99 C307.86238281 98.42894531 308.72476562 97.85789062 309.61328125 97.26953125 C319.32328915 90.82549397 328.9519045 84.26731853 338.56054688 77.67333984 C342.5378016 74.9451469 346.51906792 72.22282282 350.5 69.5 C352.0833533 68.41669585 353.66668662 67.33336249 355.25 66.25 C402.75 33.75 402.75 33.75 405.12573242 32.12451172 C406.70664032 31.04282934 408.28753229 29.96112366 409.8684082 28.87939453 C413.8637193 26.14560899 417.85931967 23.41224798 421.85546875 20.6796875 C423.05635132 19.85827271 423.05635132 19.85827271 424.28149414 19.02026367 C425.87013826 17.93392448 427.45916088 16.84813858 429.04858398 15.76293945 C432.93793506 13.1053586 436.81739831 10.43507074 440.6796875 7.73828125 C441.41872314 7.22410645 442.15775879 6.70993164 442.91918945 6.18017578 C444.31628413 5.20719061 445.71079118 4.23047606 447.10229492 3.24951172 C451.77644236 0 451.77644236 0 454 0 C454.86698484 7.68114757 455.7283889 15.36291547 456.58697891 23.0450058 C456.73683611 24.38561671 456.88677606 25.72621838 457.03680038 27.06681061 C459.24509921 46.80286927 461.38650584 66.54546849 463.47324562 86.29475975 C463.84341956 89.79765432 464.21419754 93.3004845 464.58512878 96.80329895 C465.69821838 107.31830641 466.80900778 117.83352832 467.90850258 128.349967 C468.37307402 132.78355369 468.84186169 137.21668786 469.31164551 141.64972496 C469.53116839 143.73027806 469.74885138 145.81102623 469.96456909 147.89197731 C470.26304245 150.76949241 470.56793391 153.6462618 470.87426758 156.52294922 C470.958952 157.35486817 471.04363642 158.18678713 471.13088703 159.04391575 C471.98755671 166.96803192 473.26330618 174.24622994 477.01953125 181.3515625 C477.6232959 182.51655273 478.22706055 183.68154297 478.84912109 184.88183594 C479.16903015 185.49055542 479.48893921 186.0992749 479.81854248 186.72644043 C492.46825864 210.88867996 502.67154176 236.03151553 511 262 C511.33837891 263.04446289 511.67675781 264.08892578 512.02539062 265.16503906 C523.97784942 302.45076855 530.8553187 341.01142957 534 380 C514.16761194 384.30503873 494.30106626 388.41753341 474.40942383 392.43829346 C470.73365068 393.18165572 467.05825084 393.9268594 463.3828125 394.671875 C456.25555771 396.11631255 449.12791625 397.55882971 442 399 C443.07661896 399.06041977 444.15323792 399.12083954 445.26248169 399.18309021 C455.41495046 399.75327655 465.56721863 400.32692255 475.71930122 400.90394497 C480.93842236 401.20047728 486.15760625 401.49579579 491.37695312 401.78833008 C496.41510175 402.07075353 501.45305963 402.35637878 506.49090195 402.64421272 C508.41172734 402.75339565 510.33261836 402.86143016 512.25357437 402.96829033 C514.94673954 403.11830536 517.63964114 403.27242381 520.33251953 403.42749023 C521.12446213 403.47064865 521.91640472 403.51380707 522.73234558 403.55827332 C526.88437935 403.80194741 530.90429597 404.22657379 535 405 C535.02508072 409.46166639 535.04303627 413.92329331 535.05493164 418.38500977 C535.05990073 419.8967358 535.06667832 421.4084572 535.07543945 422.92016602 C535.08783651 425.11736207 535.09330243 427.3144936 535.09765625 429.51171875 C535.10289307 430.82615967 535.10812988 432.14060059 535.11352539 433.49487305 C535.04503278 439.34583897 534.49296697 445.17246739 534 451 C533.24483597 450.95210831 532.48967194 450.90421661 531.71162415 450.85487366 C524.49263993 450.39734933 517.27355636 449.941437 510.0543642 449.48720646 C506.34551481 449.25379258 502.63670282 449.0198177 498.92797852 448.78442383 C482.2908469 447.72887156 465.65619873 446.71168151 449 446 C449.79132324 446.23945847 450.58264648 446.47891693 451.39794922 446.72563171 C458.92785017 449.00435895 466.4575382 451.28378819 473.98699951 453.5639677 C477.85612852 454.73564696 481.72533371 455.90707321 485.59472656 457.07788086 C489.34265941 458.21194782 493.09037444 459.34673207 496.83795166 460.48197365 C498.2536883 460.91070903 499.66949773 461.33920412 501.08538818 461.76743126 C511.07474007 464.7888914 521.04340782 467.87227336 531 471 C531 471.66 531 472.32 531 473 C529.01904297 474.55297852 529.01904297 474.55297852 526.2421875 476.37890625 C525.2313208 477.04825195 524.2204541 477.71759766 523.17895508 478.40722656 C522.0886499 479.1184668 520.99834473 479.82970703 519.875 480.5625 C518.75710813 481.29739927 517.6395143 482.03275209 516.5222168 482.76855469 C514.32570366 484.21175221 512.12709682 485.6517689 509.92626953 487.08837891 C507.61999857 488.59497841 505.3208447 490.11082837 503.02734375 491.63671875 C492.97163428 498.24685098 482.52810012 504.1800957 472 510 C471.10667969 510.4940332 470.21335937 510.98806641 469.29296875 511.49707031 C446.91076282 523.76517523 423.57409521 533.52747332 399.625 542.25 C398.84919586 542.53471161 398.07339172 542.81942322 397.27407837 543.11276245 C395.05344982 543.92399884 392.82860726 544.72219456 390.6015625 545.515625 C389.9506514 545.75352249 389.2997403 545.99141998 388.62910461 546.23652649 C384.05821003 547.83775679 379.78999696 548.53155037 375 549 C365.73213827 536.22759042 357.2100092 523.18649855 349.40576172 509.46728516 C348.4574519 507.80288448 347.49515886 506.14638375 346.52001953 504.49755859 C346.06095215 503.70816895 345.60188477 502.9187793 345.12890625 502.10546875 C344.71842041 501.4096167 344.30793457 500.71376465 343.88500977 499.99682617 C343 498 343 498 343 494 C344.22332031 493.52691406 345.44664062 493.05382812 346.70703125 492.56640625 C361.63360487 486.7325863 376.78741755 480.74946033 390.28515625 471.99609375 C392 471 392 471 394 471 C394 470.34 394 469.68 394 469 C392.948125 468.6596875 392.948125 468.6596875 391.875 468.3125 C388.30656387 466.68343133 385.93485489 464.59359269 383 462 C381.31207311 462.6447168 379.62471272 463.29091654 377.9375 463.9375 C376.74382812 464.39382813 375.55015625 464.85015625 374.3203125 465.3203125 C371.17635538 466.53249417 368.05117512 467.78581851 364.9296875 469.0546875 C318.64543362 487.75091156 268.07647535 498.02605235 218 496 C216.39463379 495.9383667 216.39463379 495.9383667 214.75683594 495.87548828 C167.8782633 493.88996822 122.92580102 483.57141441 79.74707031 465.10986328 C76.84619776 463.93786127 74.01883153 462.82981103 71 462 C68.41764343 463.26203397 68.41764343 463.26203397 66.25 465.375 C62.13513514 469 62.13513514 469 60 469 C60 469.66 60 470.32 60 471 C60.83015625 471.23847656 61.6603125 471.47695313 62.515625 471.72265625 C66.58029361 473.21273095 70.03443519 475.24342232 73.75 477.4375 C82.67746257 482.59505818 92.00396762 486.53537014 101.57910156 490.33178711 C102.65772461 490.7675708 103.73634766 491.20335449 104.84765625 491.65234375 C106.3018396 492.22456665 106.3018396 492.22456665 107.78540039 492.80834961 C110 494 110 494 111 497 C109.8690686 499.60937272 108.67785682 502.01577008 107.3125 504.5 C106.90821777 505.24757568 106.50393555 505.99515137 106.08740234 506.76538086 C98.02338539 521.44091832 88.6004148 535.29862061 79 549 C73.56154018 548.45634149 68.85042256 547.47766494 63.66015625 545.6640625 C62.984758 545.42920135 62.30935974 545.19434021 61.61349487 544.95236206 C59.42605994 544.18680517 57.2439601 543.407408 55.0625 542.625 C54.30945587 542.3571167 53.55641174 542.0892334 52.7805481 541.81323242 C38.88060702 536.85596605 25.37089782 531.2518395 12 525 C10.97116699 524.52594727 9.94233398 524.05189453 8.88232422 523.56347656 C-17.44853845 511.41077071 -42.23960818 496.95131404 -66.0625 480.4375 C-66.92641357 479.84138916 -67.79032715 479.24527832 -68.68041992 478.63110352 C-69.47810791 478.07092529 -70.2757959 477.51074707 -71.09765625 476.93359375 C-72.15738647 476.1919397 -72.15738647 476.1919397 -73.23852539 475.43530273 C-75 474 -75 474 -77 471 C-69.66228034 468.72302982 -62.32371277 466.4488072 -54.98461914 464.17626953 C-52.50136193 463.40700744 -50.01828157 462.63717415 -47.53540039 461.86669922 C-30.06133062 456.44481182 -12.55520334 451.15290416 5 446 C-23.34213007 447.52512477 -51.67143651 449.24223412 -80 451 C-80.67643253 444.40484277 -81.14593054 437.89912179 -81.09765625 431.26953125 C-81.0962413 430.5082341 -81.09482635 429.74693695 -81.09336853 428.96257019 C-81.08786145 426.57916994 -81.07532814 424.19587086 -81.0625 421.8125 C-81.05747294 420.17643367 -81.05291217 418.54036583 -81.04882812 416.90429688 C-81.03792277 412.93616014 -81.0207253 408.96809709 -81 405 C-76.10603192 404.07583088 -71.29378894 403.69786404 -66.33251953 403.42749023 C-65.48308273 403.37857635 -64.63364594 403.32966248 -63.75846863 403.27926636 C-60.96674998 403.11927711 -58.1747948 402.96390793 -55.3828125 402.80859375 C-53.44081018 402.69820709 -51.49882428 402.58753099 -49.55685425 402.47657776 C-44.45743578 402.18600353 -39.3578041 401.89935294 -34.25811768 401.61352539 C-29.04954784 401.32089657 -23.84118977 401.02454853 -18.6328125 400.72851562 C-8.42207855 400.14870838 1.78888458 399.57304698 12 399 C10.89166306 398.77671524 9.78332611 398.55343048 8.6414032 398.32337952 C-1.79181001 396.22125549 -12.22462149 394.11714805 -22.6570406 392.01108646 C-28.02075204 390.92834516 -33.38460371 389.84630882 -38.7487793 388.76586914 C-43.92324338 387.72361396 -49.09733449 386.67952588 -54.27116966 385.63415337 C-56.24743603 385.23518696 -58.22383703 384.83688679 -60.2003727 384.43925667 C-62.96377265 383.88321174 -65.72668914 383.32482295 -68.48950195 382.76586914 C-69.7216468 382.51879211 -69.7216468 382.51879211 -70.97868347 382.26672363 C-74.05389246 381.64256343 -77.01983121 380.9933896 -80 380 C-75.16755644 321.58941818 -61.73042634 265.97691746 -38.125 212.3125 C-37.70428223 211.35424316 -37.28356445 210.39598633 -36.85009766 209.40869141 C-34.39095923 203.94383995 -31.84970755 198.69620303 -28.86889648 193.49658203 C-19.68894415 177.08200689 -16.47799435 161.93783421 -14.99650955 143.45627975 C-14.67982187 139.65918545 -14.30106141 135.86826324 -13.92749023 132.07641602 C-13.3616321 126.28519721 -12.81364437 120.49276411 -12.28530216 114.69800282 C-11.09360016 101.66378319 -9.72686736 88.6501656 -8.328125 75.63671875 C-8.21327444 74.56769192 -8.09842388 73.49866508 -7.980093 72.3972435 C-7.51803626 68.09953422 -7.05543163 63.80188478 -6.59167767 59.50435829 C-5.79671814 52.13378819 -5.01273488 44.76211769 -4.2355957 37.38964844 C-4.07802009 35.89673137 -4.07802009 35.89673137 -3.91726112 34.37365437 C-3.31474129 28.66521188 -3.31474129 28.66521188 -2.71431732 22.95654869 C-2.44555191 20.3979105 -2.1752099 17.83944328 -1.90454102 15.28100586 C-1.82717618 14.54015873 -1.74981134 13.7993116 -1.67010212 13.03601456 C-1.20685646 8.67296114 -0.64515912 4.33887988 0 0 Z M82.546875 295.796875 C72.39723736 308.76959066 67.4187096 322.47677561 67.6875 338.9375 C67.68427734 339.95134766 67.68105469 340.96519531 67.67773438 342.00976562 C67.6787746 348.27797012 67.6787746 348.27797012 70 354 C70.54785156 353.5153125 71.09570312 353.030625 71.66015625 352.53125 C83.94828159 342.14129036 99.61042745 333.67936052 116 333 C117.08667969 332.9484375 118.17335938 332.896875 119.29296875 332.84375 C140.57477589 332.31446153 157.75166627 338.7695989 174 352 C175.485 352.99 175.485 352.99 177 354 C181.84112755 339.05229542 179.1194237 322.66944664 172.375 308.75 C168.87198036 301.89431193 164.5970443 296.32228031 159 291 C158.12214844 290.12794922 158.12214844 290.12794922 157.2265625 289.23828125 C146.89353877 279.60867933 133.42224373 276.39378257 119.64453125 276.71484375 C105.16753411 277.84755628 92.08128664 284.92643116 82.546875 295.796875 Z M287.25 299.25 C278.45975166 311.19146944 274.79141982 324.80113595 274.6875 339.4375 C274.68186035 340.19506592 274.6762207 340.95263184 274.67041016 341.7331543 C274.72876372 346.19027826 275.33054088 349.8030729 277 354 C277.42667969 353.6596875 277.85335938 353.319375 278.29296875 352.96875 C297.17958709 338.3267531 316.76535774 330.73385241 340.96484375 333.31640625 C356.46093787 335.78422038 370.24427918 342.35763731 382.171875 352.49609375 C383.73417236 354.10588371 383.73417236 354.10588371 385 354 C388.8029652 338.81905763 386.32476398 320.94591871 379.25 307.125 C370.52629823 292.62889855 359.37528461 282.92357551 343 278 C321.13197131 272.57672888 301.12496821 282.62448744 287.25 299.25 Z " fill="#1A002F" transform="translate(285,196)"/>
</svg>
